<svg xmlns="http://www.w3.org/2000/svg" xmlns:xlink="http://www.w3.org/1999/xlink" viewBox="0,0,256,256" width="50px" height="50px" fill-rule="nonzero"><g fill="#ffffff" fill-rule="nonzero" stroke="none" stroke-width="1" stroke-linecap="butt" stroke-linejoin="miter" stroke-miterlimit="10" stroke-dasharray="" stroke-dashoffset="0" font-family="none" font-weight="none" font-size="none" text-anchor="none" style="mix-blend-mode: normal"><g transform="scale(5.12,5.12)"><path d="M25,2c-12.682,0 -23,10.318 -23,23c0,6.39 2.62175,12.17761 6.84375,16.34961l2.06836,-2.16992c-3.648,-3.625 -5.91211,-8.64269 -5.91211,-14.17969c0,-11.028 8.972,-20 20,-20c3.326,0 6.4577,0.82848 9.2207,2.27148l1.40625,-2.66016c-3.181,-1.665 -6.79495,-2.61133 -10.62695,-2.61133zM25,7c-9.925,0 -18,8.075 -18,18c0,4.968 2.02306,9.47242 5.28906,12.73242l2.07031,-2.17383c-2.692,-2.712 -4.35937,-6.44359 -4.35937,-10.55859c0,-8.271 6.729,-15 15,-15c2.483,0 4.82272,0.61645 6.88672,1.68945l1.40039,-2.65234c-2.483,-1.295 -5.29811,-2.03711 -8.28711,-2.03711zM40.98633,8.48633l-2.07422,2.17578c3.748,3.636 6.08789,8.71589 6.08789,14.33789c0,11.028 -8.972,20 -20,20c-3.405,0 -6.61188,-0.86019 -9.42187,-2.36719l-1.34766,2.68164c3.215,1.712 6.87953,2.68555 10.76953,2.68555c12.682,0 23,-10.317 23,-23c0,-6.475 -2.69367,-12.32967 -7.01367,-16.51367zM25,12c-7.168,0 -13,5.832 -13,13c0,3.546 1.43023,6.76237 3.74023,9.10938l4.14453,-4.3457c-1.166,-1.251 -1.88477,-2.92367 -1.88477,-4.76367c0,-3.86 3.14,-7 7,-7c1.134,0 2.20334,0.27681 3.15234,0.75781l2.80078,-5.30273c-1.786,-0.925 -3.80712,-1.45508 -5.95312,-1.45508zM37.5332,12.10742l-2.06836,2.16797c2.793,2.726 4.53516,6.52361 4.53516,10.72461c0,8.271 -6.729,15 -15,15c-2.597,0 -5.04183,-0.66408 -7.17383,-1.83008l-1.34766,2.67969c2.538,1.37 5.43948,2.15039 8.52148,2.15039c9.925,0 18,-8.075 18,-18c0,-5.054 -2.1008,-9.62058 -5.4668,-12.89258zM34.08789,15.7207l-4.13672,4.33594c1.265,1.267 2.04883,3.01536 2.04883,4.94336c0,3.859 -3.14,7 -7,7c-1.306,0 -2.52527,-0.36523 -3.57227,-0.99023l-2.70117,5.36914c1.862,1.03 3.99944,1.62109 6.27344,1.62109c7.168,0 13,-5.832 13,-13c0,-3.633 -1.50111,-6.9183 -3.91211,-9.2793zM25,24c-0.55228,0 -1,0.44772 -1,1c0,0.55228 0.44772,1 1,1c0.55228,0 1,-0.44772 1,-1c0,-0.55228 -0.44772,-1 -1,-1z"></path></g></g></svg>
